<svg width="34" height="28" viewBox="0 0 34 28" fill="none" xmlns="http://www.w3.org/2000/svg">
<path d="M28.3281 9.49786C26.7567 3.2379 20.4083 -0.562911 14.1483 1.00849C9.25628 2.23653 5.70414 6.46462 5.33815 11.4951C1.86462 12.0679 -0.486903 15.3481 0.0859213 18.8216C0.595135 21.9096 3.27088 24.1711 6.40053 24.1587H11.7124V22.0339H6.40053C4.05359 22.0339 2.151 20.1313 2.151 17.7844C2.151 15.4374 4.05359 13.5348 6.40053 13.5348C6.9873 13.5348 7.46291 13.0592 7.46291 12.4725C7.4576 7.19182 11.7342 2.9067 17.0148 2.90145C21.586 2.89687 25.521 6.12851 26.4052 10.6133C26.4925 11.0611 26.8559 11.4032 27.3082 11.4632C30.2127 11.8768 32.2318 14.5666 31.8183 17.4709C31.4469 20.0789 29.2201 22.0208 26.5858 22.0339H22.3363V24.1587H26.5858C30.693 24.1463 34.0124 20.8067 33.9999 16.6995C33.9896 13.2806 31.6494 10.3092 28.3281 9.49786Z" fill="#565B6B"/>
<path d="M16.2701 13.8431L12.0205 18.0927L13.5185 19.5906L15.962 17.1578V27.346H18.0868V17.1578L20.5196 19.5906L22.0176 18.0927L17.768 13.8431C17.3536 13.4312 16.6845 13.4312 16.2701 13.8431Z" fill="#565B6B"/>
</svg>
